<svg width="1277" height="435" viewBox="0 0 1277 435" fill="none" xmlns="http://www.w3.org/2000/svg">
<path d="M303.96 153.49C286.195 153.49 272.327 159.336 262.378 171.052C254.121 159.336 241.9 153.49 225.642 153.49C217.409 153.49 210.034 155.509 203.541 159.499C197.047 163.512 192.27 167.804 189.232 172.351V158.362H147V296.536H189.232V218.193C189.232 210.815 191.133 204.923 194.937 200.468C198.717 196.037 204.19 193.81 211.333 193.81C225.851 193.81 233.11 201.93 233.11 218.193V296.536H275.365V218.193C275.365 210.815 277.267 204.923 281.047 200.468C284.85 196.037 290.323 193.81 297.466 193.81C311.984 193.81 319.243 201.93 319.243 218.193V296.536H361.498V213.321C361.498 193.602 356.396 178.685 346.215 168.616C336.034 158.524 321.957 153.49 303.96 153.49Z" fill="black"/>
<path d="M445.66 179.542C425.506 179.542 408.298 186.641 393.989 200.839C379.68 215.037 372.537 232.413 372.537 253.014C372.537 269.648 377.199 284.31 386.568 297H504.752C514.121 284.31 518.783 269.648 518.783 253.014C518.783 232.413 511.64 215.037 497.33 200.839C483.045 186.641 465.813 179.542 445.66 179.542ZM466.463 274.636C460.827 280.366 453.893 283.243 445.66 283.243C437.427 283.243 430.493 280.366 424.857 274.636C419.222 268.882 416.415 261.691 416.415 253.014C416.415 244.338 419.222 237.796 424.857 232.042C430.493 226.289 437.427 223.412 445.66 223.412C453.893 223.412 460.827 226.289 466.463 232.042C472.098 237.796 474.904 244.778 474.904 253.014C474.904 261.691 472.098 268.882 466.463 274.636Z" fill="black"/>
<path d="M570.799 181.445V158.362H530.168V296.536H572.423V253.943C572.423 234.432 576.412 220.675 584.436 212.671C592.46 204.645 603.824 200.631 618.574 200.631H627.665V158.362H616.626C596.241 158.362 580.981 166.064 570.799 181.445Z" fill="black"/>
<path d="M679.663 181.445V158.362H639.031V296.536H681.286V253.943C681.286 234.432 685.298 220.675 693.323 212.671C701.324 204.645 712.711 200.631 727.437 200.631H736.551V158.362H725.489C705.127 158.362 689.844 166.064 679.663 181.445Z" fill="black"/>
<path d="M821.123 149C800.969 149 783.738 156.099 769.452 170.297C755.143 184.495 748 201.894 748 222.472C748 243.049 755.143 260.634 769.452 275.157C783.738 289.68 800.969 296.941 821.123 296.941C841.276 296.941 858.507 289.68 872.793 275.157C887.103 260.634 894.246 243.073 894.246 222.472C894.246 201.871 887.103 184.495 872.793 170.297C858.507 156.099 841.276 149 821.123 149ZM841.926 244.093C836.29 249.847 829.356 252.723 821.123 252.723C812.89 252.723 805.956 249.847 800.32 244.093C794.684 238.363 791.878 231.148 791.878 222.472C791.878 213.795 794.684 207.253 800.32 201.5C805.956 195.769 812.89 192.893 821.123 192.893C829.356 192.893 836.29 195.769 841.926 201.5C847.561 207.253 850.367 214.236 850.367 222.472C850.367 231.148 847.561 238.363 841.926 244.093Z" fill="black"/>
<path d="M1092.95 158.362L1061.43 234.432L1028.62 158.362H984.738L996.427 185.343L974.325 237.054L941.509 158.362H897.631L954.195 296.536H993.18L1018.2 236.729L1043.23 296.536H1082.24L1138.78 158.362H1092.95Z" fill="black"/>
</svg>
