<svg width="512" height="512" viewBox="0 0 512 512" fill="none" xmlns="http://www.w3.org/2000/svg">
  <rect width="512" height="512" rx="96" fill="#ECE6D6"/>
  <path d="M256 145C218.4 145 186.3 158.2 159.6 184.7C132.9 211.1 119.6 243.5 119.6 281.9C119.6 305.4 124.6 326.8 134.6 346.1C140.7 357.8 153.5 363.9 166.7 363.9H345.3C358.5 363.9 371.3 357.8 377.4 346.1C387.4 326.8 392.4 305.4 392.4 281.9C392.4 243.5 379.1 211.1 352.4 184.7C325.7 158.2 293.6 145 256 145ZM294.8 322.2C284.3 332.9 271.4 338.2 256 338.2C240.6 338.2 227.7 332.9 217.2 322.2C206.7 311.5 201.4 298.1 201.4 281.9C201.4 265.7 206.7 253.5 217.2 242.8C227.7 232.1 240.6 226.8 256 226.8C271.4 226.8 284.3 232.1 294.8 242.8C305.3 253.5 310.6 266.5 310.6 281.9C310.6 298.1 305.3 311.5 294.8 322.2Z" fill="#181715"/>
</svg>
