<svg width="552" height="552" viewBox="0 0 552 552" fill="none" xmlns="http://www.w3.org/2000/svg">
<path d="M276 160C236.312 160 202.424 173.961 174.245 201.884C146.067 229.806 132 263.98 132 304.495C132 329.296 137.276 351.868 147.869 372.211C154.314 384.589 167.864 391 181.819 391H370.181C384.136 391 397.686 384.589 404.131 372.211C414.724 351.868 420 329.296 420 304.495C420 263.98 405.933 229.806 377.755 201.884C349.621 173.961 315.688 160 276 160ZM316.967 347.017C305.869 358.287 292.213 363.944 276 363.944C259.787 363.944 246.131 358.287 235.033 347.017C223.935 335.702 218.409 321.559 218.409 304.495C218.409 287.431 223.935 274.565 235.033 263.25C246.131 251.935 259.787 246.277 276 246.277C292.213 246.277 305.869 251.935 316.967 263.25C328.065 274.565 333.591 288.298 333.591 304.495C333.591 321.559 328.065 335.702 316.967 347.017Z" fill="white"/>
</svg>
