<svg width="240" height="240" viewBox="0 0 240 240" fill="none" xmlns="http://www.w3.org/2000/svg">
  <rect width="240" height="240" rx="58" fill="#5E5345"/>
  <path d="M66 155C78 139 91 132 104 135C116 138 125 150 138 151C154 153 168 140 181 124" stroke="#FFF7E6" stroke-width="8" stroke-linecap="round" stroke-linejoin="round"/>
  <path d="M71 104C82 94 96 91 109 99M133 95C146 88 160 91 169 103" stroke="#FFF7E6" stroke-width="6" stroke-linecap="round"/>
  <path d="M91 164C87 178 80 185 69 188M151 165C156 178 164 185 176 188" stroke="#FFF7E6" stroke-width="7" stroke-linecap="round"/>
  <path d="M115 116C117 106 124 101 132 101C140 101 147 107 148 116C149 129 139 139 131 148C123 139 113 129 115 116Z" stroke="#FFF7E6" stroke-width="7" stroke-linecap="round" stroke-linejoin="round"/>
</svg>
