<svg width="240" height="240" viewBox="0 0 240 240" fill="none" xmlns="http://www.w3.org/2000/svg">
  <rect width="240" height="240" rx="58" fill="#EDE6CB"/>
  <path d="M78 75C92 70 113 69 134 72C146 74 157 73 168 76" stroke="#2A261E" stroke-width="8" stroke-linecap="round" stroke-linejoin="round"/>
  <path d="M80 76C78 98 78 124 80 151C81 160 79 167 78 174" stroke="#2A261E" stroke-width="8" stroke-linecap="round" stroke-linejoin="round"/>
  <path d="M168 77C166 99 166 121 168 143C169 155 168 166 166 175" stroke="#2A261E" stroke-width="8" stroke-linecap="round" stroke-linejoin="round"/>
  <path d="M108 88C120 92 133 96 146 103C145 124 145 145 147 165C134 170 121 175 109 181C107 151 106 119 108 88Z" stroke="#2A261E" stroke-width="8" stroke-linecap="round" stroke-linejoin="round"/>
  <path d="M126 137C127 136 128 136 129 137" stroke="#2A261E" stroke-width="8" stroke-linecap="round"/>
  <path d="M71 190C86 184 103 183 121 188C139 194 158 193 174 186" stroke="#2A261E" stroke-width="7" stroke-linecap="round" stroke-linejoin="round"/>
</svg>
